<svg width="2159" height="788" viewBox="0 0 2159 788" fill="none" xmlns="http://www.w3.org/2000/svg">
<path d="M708.729 676.936C715.673 676.936 721.749 678.212 726.957 680.765C732.165 683.318 736.25 686.842 739.212 691.335C742.173 695.828 743.653 701.087 743.653 707.112H727.417C727.417 704.355 726.702 701.648 725.272 698.993C723.843 696.338 721.698 694.193 718.839 692.56C715.98 690.824 712.456 689.956 708.27 689.956C704.797 689.854 701.682 690.415 698.925 691.641C696.168 692.866 694.023 694.653 692.491 697.002C690.959 699.351 690.193 702.159 690.193 705.427C690.193 708.695 690.858 711.35 692.186 713.393C693.615 715.333 695.657 717.018 698.312 718.447C700.968 719.877 704.031 721.204 707.503 722.43C711.077 723.553 715.009 724.83 719.298 726.26C724.608 727.996 729.306 730.14 733.391 732.693C737.578 735.144 740.846 738.361 743.194 742.344C745.645 746.224 746.87 751.228 746.87 757.355C746.87 762.666 745.492 767.619 742.734 772.214C739.977 776.809 735.893 780.587 730.48 783.549C725.068 786.408 718.328 787.838 710.261 787.838C702.397 787.838 695.504 786.459 689.581 783.702C683.658 780.843 679.063 776.86 675.795 771.754C672.527 766.648 670.894 760.674 670.894 753.832H686.977C687.079 757.713 687.998 761.287 689.734 764.555C691.573 767.72 694.177 770.274 697.547 772.214C701.019 774.052 705.257 774.971 710.261 774.971C714.55 774.971 718.226 774.256 721.289 772.826C724.455 771.396 726.855 769.457 728.489 767.006C730.123 764.453 730.939 761.542 730.939 758.274C730.939 754.496 730.072 751.382 728.336 748.931C726.6 746.48 724.251 744.488 721.289 742.956C718.43 741.322 715.06 739.892 711.18 738.667C707.401 737.442 703.418 736.114 699.231 734.685C690.756 731.927 684.424 728.353 680.237 723.962C676.152 719.571 674.11 713.852 674.11 706.806C674.11 700.781 675.54 695.573 678.399 691.182C681.259 686.688 685.241 683.216 690.347 680.765C695.555 678.212 701.682 676.936 708.729 676.936ZM813.338 676.936C823.856 676.936 833.047 679.284 840.91 683.981C848.773 688.679 854.85 695.215 859.139 703.589C863.53 711.861 865.726 721.46 865.726 732.387C865.726 743.416 863.53 753.117 859.139 761.491C854.85 769.763 848.773 776.248 840.91 780.945C833.047 785.541 823.856 787.838 813.338 787.838C803.024 787.838 793.935 785.541 786.071 780.945C778.31 776.248 772.183 769.763 767.689 761.491C763.298 753.117 761.104 743.416 761.104 732.387C761.104 721.46 763.298 711.861 767.689 703.589C772.183 695.215 778.31 688.679 786.071 683.981C793.935 679.284 803.024 676.936 813.338 676.936ZM976.043 746.02C976.043 752.453 977.115 757.764 979.26 761.951C981.404 766.036 984.365 769.099 988.144 771.142C992.024 773.082 996.518 774.052 1001.62 774.052C1006.83 774.052 1011.33 773.082 1015.1 771.142C1018.88 769.099 1021.79 766.036 1023.83 761.951C1025.98 757.764 1027.05 752.453 1027.05 746.02V678.773H1042.37V745.867C1042.37 755.466 1040.53 763.38 1036.86 769.609C1033.18 775.736 1028.23 780.332 1022 783.396C1015.77 786.357 1008.87 787.838 1001.32 787.838C993.76 787.838 986.918 786.357 980.791 783.396C974.664 780.332 969.762 775.736 966.086 769.609C962.512 763.38 960.725 755.466 960.725 745.867V678.773H976.043V746.02ZM1237.28 676.936C1247.79 676.936 1256.99 679.284 1264.85 683.981C1272.71 688.679 1278.79 695.215 1283.08 703.589C1287.47 711.861 1289.66 721.46 1289.66 732.387C1289.66 743.416 1287.47 753.117 1283.08 761.491C1278.79 769.763 1272.71 776.248 1264.85 780.945C1256.99 785.541 1247.79 787.838 1237.28 787.838C1226.96 787.838 1217.87 785.541 1210.01 780.945C1202.25 776.248 1196.12 769.763 1191.63 761.491C1187.24 753.117 1185.04 743.416 1185.04 732.387C1185.04 721.46 1187.24 711.861 1191.63 703.589C1196.12 695.215 1202.25 688.679 1210.01 683.981C1217.87 679.284 1226.96 676.936 1237.28 676.936ZM1449.35 676.936C1456.29 676.936 1462.37 678.212 1467.58 680.765C1472.79 683.318 1476.87 686.842 1479.83 691.335C1482.79 695.828 1484.27 701.087 1484.27 707.112H1468.04C1468.04 704.355 1467.32 701.648 1465.89 698.993C1464.46 696.338 1462.32 694.193 1459.46 692.56C1456.6 690.824 1453.08 689.956 1448.89 689.956C1445.42 689.854 1442.3 690.415 1439.55 691.641C1436.79 692.866 1434.64 694.653 1433.11 697.002C1431.58 699.351 1430.81 702.159 1430.81 705.427C1430.81 708.695 1431.48 711.35 1432.81 713.393C1434.24 715.333 1436.28 717.018 1438.93 718.447C1441.59 719.877 1444.65 721.204 1448.12 722.43C1451.7 723.553 1455.63 724.83 1459.92 726.26C1465.23 727.996 1469.93 730.14 1474.01 732.693C1478.2 735.144 1481.47 738.361 1483.82 742.344C1486.27 746.224 1487.49 751.228 1487.49 757.355C1487.49 762.666 1486.11 767.619 1483.36 772.214C1480.6 776.809 1476.51 780.587 1471.1 783.549C1465.69 786.408 1458.95 787.838 1450.88 787.838C1443.02 787.838 1436.13 786.459 1430.2 783.702C1424.28 780.843 1419.68 776.86 1416.42 771.754C1413.15 766.648 1411.51 760.674 1411.51 753.832H1427.6C1427.7 757.713 1428.62 761.287 1430.36 764.555C1432.19 767.72 1434.8 770.274 1438.17 772.214C1441.64 774.052 1445.88 774.971 1450.88 774.971C1455.17 774.971 1458.85 774.256 1461.91 772.826C1465.08 771.397 1467.48 769.457 1469.11 767.006C1470.74 764.453 1471.56 761.542 1471.56 758.274C1471.56 754.496 1470.69 751.381 1468.96 748.931C1467.22 746.48 1464.87 744.488 1461.91 742.956C1459.05 741.322 1455.68 739.892 1451.8 738.667C1448.02 737.442 1444.04 736.114 1439.85 734.685C1431.38 731.927 1425.05 728.353 1420.86 723.962C1416.77 719.571 1414.73 713.852 1414.73 706.806C1414.73 700.781 1416.16 695.573 1419.02 691.182C1421.88 686.688 1425.86 683.216 1430.97 680.765C1436.18 678.212 1442.3 676.936 1449.35 676.936ZM899.478 773.898H948.495V786H884.159V678.773H899.478V773.898ZM1135.82 691.335H1103.95V786H1088.64V691.335H1056.93V678.773H1135.82V691.335ZM1166.65 786H1151.33V678.773H1166.65V786ZM1378.1 761.031V678.773H1393.42V786H1378.1L1323.42 703.896V786H1308.1V678.773H1323.42L1378.1 761.031ZM813.491 690.722C806.139 690.722 799.705 692.407 794.19 695.776C788.676 699.044 784.387 703.793 781.323 710.022C778.26 716.252 776.728 723.707 776.728 732.387C776.728 741.067 778.26 748.522 781.323 754.751C784.387 760.98 788.676 765.78 794.19 769.15C799.705 772.52 806.139 774.205 813.491 774.205C820.844 774.205 827.278 772.52 832.792 769.15C838.306 765.78 842.544 760.98 845.506 754.751C848.569 748.522 850.101 741.067 850.101 732.387C850.101 723.707 848.569 716.252 845.506 710.022C842.544 703.793 838.306 699.044 832.792 695.776C827.278 692.406 820.844 690.722 813.491 690.722ZM1237.43 690.722C1230.08 690.722 1223.64 692.407 1218.13 695.776C1212.61 699.044 1208.33 703.793 1205.26 710.022C1202.2 716.252 1200.67 723.707 1200.67 732.387C1200.67 741.067 1202.2 748.522 1205.26 754.751C1208.33 760.98 1212.61 765.78 1218.13 769.15C1223.64 772.52 1230.08 774.205 1237.43 774.205C1244.78 774.205 1251.22 772.52 1256.73 769.15C1262.24 765.78 1266.48 760.98 1269.44 754.751C1272.51 748.522 1274.04 741.067 1274.04 732.387C1274.04 723.707 1272.51 716.252 1269.44 710.022C1266.48 703.793 1262.24 699.044 1256.73 695.776C1251.22 692.406 1244.78 690.722 1237.43 690.722ZM387.589 366.125C391.171 274.414 469.262 202.049 563.115 208.497C644.072 214.229 709.268 280.146 713.566 361.826C719.298 457.119 644.072 535.934 550.219 535.934C533.025 535.934 517.263 533.067 501.502 528.052C497.203 527.335 494.337 523.036 494.337 518.737V480.764C494.337 473.599 502.218 468.583 508.666 471.449C521.562 477.181 535.174 480.047 550.219 480.047C611.116 480.047 660.55 428.46 657.685 366.842C655.535 312.389 610.399 267.25 555.95 264.384C495.053 260.802 444.187 308.806 442.754 368.991V732.968C442.754 738.7 438.455 742.999 432.724 742.999H397.618C391.887 742.999 387.589 738.7 387.589 732.968V366.125ZM1207.2 210.644C1212.93 209.927 1218.66 214.226 1218.66 220.675V437.771C1218.66 458.549 1233.7 477.179 1254.48 479.328C1263.08 480.076 1271.1 478.284 1277.92 474.565C1281.48 472.624 1285.82 472.183 1289.35 474.179L1324.29 493.934C1329.63 496.955 1331.03 504.068 1326.67 508.387C1309.41 525.474 1285.79 535.931 1259.5 535.931C1206.48 535.931 1164.21 493.657 1163.49 441.354V225.69C1163.49 220.675 1167.08 216.376 1172.09 215.659L1207.2 210.644ZM1552.52 209.217C1601.95 209.217 1644.94 235.01 1668.58 274.417C1672.16 280.149 1668.58 288.747 1661.41 289.464L1622.01 295.195C1618.43 295.912 1614.85 294.479 1612.7 291.613C1598.37 275.134 1576.88 264.387 1552.52 264.387C1508.1 264.387 1471.56 300.211 1471.56 345.35V525.188C1471.56 530.92 1467.26 535.22 1461.53 535.22H1426.42C1420.69 535.22 1416.39 530.92 1416.39 525.188V225.696C1416.39 220.681 1419.98 216.382 1424.99 215.665L1460.1 210.649C1465.83 209.933 1471.56 214.232 1471.56 220.681V234.294C1471.56 235.01 1472.28 235.727 1472.99 235.011C1495.2 218.531 1522.43 209.217 1552.52 209.217ZM831.779 247.189C831.78 247.906 832.496 248.622 833.212 247.905C861.869 223.545 898.408 208.499 939.245 208.499C1028.08 208.499 1099.73 279.431 1101.88 367.56V524.471C1101.88 530.202 1097.58 534.502 1091.85 534.502H1056.74C1051.01 534.502 1046.71 530.203 1046.71 524.471V371.142C1046.71 310.24 995.127 260.802 933.514 263.668C875.482 266.534 831.062 316.689 831.062 374.725V525.188C831.062 530.919 826.764 535.218 821.033 535.218H785.928C780.196 535.218 775.898 530.919 775.897 525.188V8.59766L831.779 0V247.189ZM1864.88 209.931C1913.6 203.482 1958.73 219.245 1992.4 247.904C1993.12 248.621 1993.84 247.904 1993.84 247.188V220.678C1993.84 214.23 1998.85 209.93 2005.3 210.646L2040.4 215.662C2045.42 216.379 2049 220.678 2049 225.693V441.356C2050.43 462.135 2067.63 479.33 2089.12 479.33C2096.05 479.33 2102.47 477.683 2108.07 474.709C2111.63 472.815 2115.94 472.384 2119.45 474.37L2153.95 493.875C2159.35 496.928 2160.71 504.142 2156.23 508.432C2138.96 524.958 2115.56 535.217 2089.84 535.217C2054.02 535.217 2022.49 515.155 2006.02 485.062C2006.02 484.346 2005.3 484.347 2004.58 485.062C1974.49 515.871 1932.94 535.217 1886.37 535.217C1789.65 535.217 1712.99 452.104 1723.74 353.229C1731.62 284.446 1796.1 218.529 1864.88 209.931ZM163.347 208.496C253.617 208.496 326.694 281.578 326.694 371.855C326.694 462.133 253.618 535.216 163.347 535.216C73.0759 535.216 0 462.133 0 371.855C0.000182645 281.578 73.076 208.496 163.347 208.496ZM1993.12 386.187C2001.72 315.254 1942.25 256.502 1872.04 265.1C1824.04 271.548 1784.64 310.24 1778.91 358.244C1770.31 429.176 1829.77 487.928 1899.98 479.33C1947.98 472.882 1987.39 434.191 1993.12 386.187ZM163.347 264.382C103.883 264.382 55.882 312.387 55.8818 371.855C55.8818 431.324 103.883 479.329 163.347 479.329C222.811 479.329 271.529 431.324 270.812 371.855C270.812 312.387 222.811 264.382 163.347 264.382ZM1182.84 5.01855C1186.42 -1.42955 1195.73 -1.42939 1200.03 5.01855L1217.23 33.6787C1217.94 35.1117 1219.38 36.5443 1220.81 37.2607L1249.47 54.457C1255.91 58.0396 1255.91 67.3534 1249.47 71.6523L1220.81 88.8486C1219.38 89.5651 1217.94 90.9977 1217.23 92.4307L1200.03 149.75C1196.45 156.198 1187.14 156.198 1182.84 149.75L1165.64 92.4307C1164.93 90.9978 1163.49 89.5651 1162.06 88.8486L1133.4 71.6523C1126.96 68.0699 1126.96 58.756 1133.4 54.457L1162.06 37.2607C1163.49 36.5443 1164.93 35.1116 1165.64 33.6787L1182.84 5.01855Z" fill="black"/>
</svg>
